<?xml version="1.0" encoding="UTF-8"?>
<svg width="223px" height="24px" viewBox="0 0 223 24" version="1.1" xmlns="http://www.w3.org/2000/svg" xmlns:xlink="http://www.w3.org/1999/xlink">
    <!-- Generator: Sketch 48.2 (47327) - http://www.bohemiancoding.com/sketch -->
    <title>Group 19</title>
    <desc>Created with Sketch.</desc>
    <defs></defs>
    <g id="Page-1" stroke="none" stroke-width="1" fill="none" fill-rule="evenodd">
        <g id="Group-19" transform="translate(0.000000, -3.000000)">
            <g id="Group-25" transform="translate(0.000000, 3.000000)">
                <polygon id="Path-14" fill="#F5A623" points="3.63512371 4.95745277 10.2149524 4.95745277 16.7460509 15.1562633 28 4 18.988473 22 14.7064181 22"></polygon>
                <path d="M4.8814319,22 L0,22 L0,10.022589 L12.8644393,10.022589 C13.3949788,9.31228667 13.6602485,8.41443452 13.6602485,7.32903253 C13.6602485,6.24363053 13.3949788,5.47979649 12.8644393,5.03753039 L3.55763681,5.03753039 L6.71803361,0 L14.0903753,0 C17.3634584,1.20985899 19,3.40384166 19,6.58194803 C19,9.76005439 17.3634584,12.1614636 14.0903753,13.7861758 L5.01990085,13.7861758 L4.8814319,22 Z" id="Path-12" fill="#323F48"></path>
                <polygon id="Path-13" fill="#323F48" points="23.6515302 0 32 0 16.8179981 15.00625"></polygon>
            </g>
            <path d="M146.024,9.848 C145.655998,9.39999776 145.204003,9.0560012 144.668,8.816 C144.131997,8.5759988 143.512004,8.456 142.808,8.456 C142.103996,8.456 141.452003,8.59199864 140.852,8.864 C140.251997,9.13600136 139.732002,9.51599756 139.292,10.004 C138.851998,10.4920024 138.508001,11.0719966 138.26,11.744 C138.011999,12.4160034 137.888,13.1439961 137.888,13.928 C137.888,14.728004 138.011999,15.4599967 138.26,16.124 C138.508001,16.7880033 138.847998,17.3639976 139.28,17.852 C139.712002,18.3400024 140.219997,18.7199986 140.804,18.992 C141.388003,19.2640014 142.015997,19.4 142.688,19.4 C143.456004,19.4 144.135997,19.2400016 144.728,18.92 C145.320003,18.5999984 145.807998,18.1520029 146.192,17.576 L149.312,19.904 C148.591996,20.912005 147.680006,21.6559976 146.576,22.136 C145.471994,22.6160024 144.336006,22.856 143.168,22.856 C141.839993,22.856 140.616006,22.6480021 139.496,22.232 C138.375994,21.8159979 137.408004,21.2200039 136.592,20.444 C135.775996,19.6679961 135.140002,18.7280055 134.684,17.624 C134.227998,16.5199945 134,15.2880068 134,13.928 C134,12.5679932 134.227998,11.3360055 134.684,10.232 C135.140002,9.12799448 135.775996,8.18800388 136.592,7.412 C137.408004,6.63599612 138.375994,6.04000208 139.496,5.624 C140.616006,5.20799792 141.839993,5 143.168,5 C143.648002,5 144.147997,5.04399956 144.668,5.132 C145.188003,5.22000044 145.699997,5.35999904 146.204,5.552 C146.708003,5.74400096 147.191998,5.9999984 147.656,6.32 C148.120002,6.6400016 148.535998,7.03199768 148.904,7.496 L146.024,9.848 Z M149.661241,16.592 C149.661241,15.6639954 149.82924,14.8240038 150.165241,14.072 C150.501243,13.3199962 150.961238,12.6760027 151.545241,12.14 C152.129244,11.6039973 152.817237,11.1920014 153.609241,10.904 C154.401245,10.6159986 155.245237,10.472 156.141241,10.472 C157.037246,10.472 157.881237,10.6159986 158.673241,10.904 C159.465245,11.1920014 160.153238,11.6039973 160.737241,12.14 C161.321244,12.6760027 161.78124,13.3199962 162.117241,14.072 C162.453243,14.8240038 162.621241,15.6639954 162.621241,16.592 C162.621241,17.5200046 162.453243,18.3599962 162.117241,19.112 C161.78124,19.8640038 161.321244,20.5079973 160.737241,21.044 C160.153238,21.5800027 159.465245,21.9919986 158.673241,22.28 C157.881237,22.5680014 157.037246,22.712 156.141241,22.712 C155.245237,22.712 154.401245,22.5680014 153.609241,22.28 C152.817237,21.9919986 152.129244,21.5800027 151.545241,21.044 C150.961238,20.5079973 150.501243,19.8640038 150.165241,19.112 C149.82924,18.3599962 149.661241,17.5200046 149.661241,16.592 Z M153.261241,16.592 C153.261241,17.4720044 153.513239,18.1839973 154.017241,18.728 C154.521244,19.2720027 155.229237,19.544 156.141241,19.544 C157.053246,19.544 157.761239,19.2720027 158.265241,18.728 C158.769244,18.1839973 159.021241,17.4720044 159.021241,16.592 C159.021241,15.7119956 158.769244,15.0000027 158.265241,14.456 C157.761239,13.9119973 157.053246,13.64 156.141241,13.64 C155.229237,13.64 154.521244,13.9119973 154.017241,14.456 C153.513239,15.0000027 153.261241,15.7119956 153.261241,16.592 Z M163.930483,10.76 L167.386483,10.76 L167.386483,12.344 L167.434483,12.344 C167.546483,12.1199989 167.706482,11.8960011 167.914483,11.672 C168.122484,11.4479989 168.370481,11.2480009 168.658483,11.072 C168.946484,10.8959991 169.274481,10.7520006 169.642483,10.64 C170.010485,10.5279994 170.410481,10.472 170.842483,10.472 C171.754487,10.472 172.49048,10.6119986 173.050483,10.892 C173.610486,11.1720014 174.046481,11.5599975 174.358483,12.056 C174.670484,12.5520025 174.882482,13.1359966 174.994483,13.808 C175.106483,14.4800034 175.162483,15.2079961 175.162483,15.992 L175.162483,22.424 L171.562483,22.424 L171.562483,16.712 C171.562483,16.3759983 171.550483,16.0280018 171.526483,15.668 C171.502483,15.3079982 171.430483,14.9760015 171.310483,14.672 C171.190482,14.3679985 171.006484,14.120001 170.758483,13.928 C170.510481,13.735999 170.154485,13.64 169.690483,13.64 C169.22648,13.64 168.850484,13.7239992 168.562483,13.892 C168.274481,14.0600008 168.054483,14.2839986 167.902483,14.564 C167.750482,14.8440014 167.650483,15.1599982 167.602483,15.512 C167.554482,15.8640018 167.530483,16.2319981 167.530483,16.616 L167.530483,22.424 L163.930483,22.424 L163.930483,10.76 Z M176.903724,10.76 L180.359724,10.76 L180.359724,12.344 L180.407724,12.344 C180.519725,12.1199989 180.679723,11.8960011 180.887724,11.672 C181.095725,11.4479989 181.343723,11.2480009 181.631724,11.072 C181.919726,10.8959991 182.247722,10.7520006 182.615724,10.64 C182.983726,10.5279994 183.383722,10.472 183.815724,10.472 C184.727729,10.472 185.463721,10.6119986 186.023724,10.892 C186.583727,11.1720014 187.019723,11.5599975 187.331724,12.056 C187.643726,12.5520025 187.855724,13.1359966 187.967724,13.808 C188.079725,14.4800034 188.135724,15.2079961 188.135724,15.992 L188.135724,22.424 L184.535724,22.424 L184.535724,16.712 C184.535724,16.3759983 184.523724,16.0280018 184.499724,15.668 C184.475724,15.3079982 184.403725,14.9760015 184.283724,14.672 C184.163723,14.3679985 183.979725,14.120001 183.731724,13.928 C183.483723,13.735999 183.127726,13.64 182.663724,13.64 C182.199722,13.64 181.823726,13.7239992 181.535724,13.892 C181.247723,14.0600008 181.027725,14.2839986 180.875724,14.564 C180.723723,14.8440014 180.623724,15.1599982 180.575724,15.512 C180.527724,15.8640018 180.503724,16.2319981 180.503724,16.616 L180.503724,22.424 L176.903724,22.424 L176.903724,10.76 Z M200.916965,20.408 C200.340963,21.1440037 199.61297,21.711998 198.732965,22.112 C197.852961,22.512002 196.94097,22.712 195.996965,22.712 C195.100961,22.712 194.256969,22.5680014 193.464965,22.28 C192.672962,21.9919986 191.984968,21.5800027 191.400965,21.044 C190.816963,20.5079973 190.356967,19.8640038 190.020965,19.112 C189.684964,18.3599962 189.516965,17.5200046 189.516965,16.592 C189.516965,15.6639954 189.684964,14.8240038 190.020965,14.072 C190.356967,13.3199962 190.816963,12.6760027 191.400965,12.14 C191.984968,11.6039973 192.672962,11.1920014 193.464965,10.904 C194.256969,10.6159986 195.100961,10.472 195.996965,10.472 C196.82897,10.472 197.584962,10.6159986 198.264965,10.904 C198.944969,11.1920014 199.520963,11.6039973 199.992965,12.14 C200.464968,12.6760027 200.828964,13.3199962 201.084965,14.072 C201.340967,14.8240038 201.468965,15.6639954 201.468965,16.592 L201.468965,17.72 L193.116965,17.72 C193.260966,18.4080034 193.572963,18.955998 194.052965,19.364 C194.532968,19.772002 195.124962,19.976 195.828965,19.976 C196.420968,19.976 196.920963,19.8440013 197.328965,19.58 C197.736968,19.3159987 198.092964,18.9760021 198.396965,18.56 L200.916965,20.408 Z M197.868965,15.272 C197.884966,14.663997 197.684968,14.1440022 197.268965,13.712 C196.852963,13.2799978 196.316969,13.064 195.660965,13.064 C195.260963,13.064 194.908967,13.1279994 194.604965,13.256 C194.300964,13.3840006 194.040967,13.547999 193.824965,13.748 C193.608964,13.948001 193.440966,14.1799987 193.320965,14.444 C193.200965,14.7080013 193.132966,14.9839986 193.116965,15.272 L197.868965,15.272 Z M210.746207,14.528 C210.570206,14.2719987 210.322208,14.0600008 210.002207,13.892 C209.682205,13.7239992 209.338209,13.64 208.970207,13.64 C208.058202,13.64 207.350209,13.9119973 206.846207,14.456 C206.342204,15.0000027 206.090207,15.7119956 206.090207,16.592 C206.090207,17.4720044 206.342204,18.1839973 206.846207,18.728 C207.350209,19.2720027 208.058202,19.544 208.970207,19.544 C209.370209,19.544 209.714205,19.4560009 210.002207,19.28 C210.290208,19.1039991 210.538206,18.8960012 210.746207,18.656 L213.122207,21.152 C212.562204,21.7280029 211.902211,22.1319988 211.142207,22.364 C210.382203,22.5960012 209.65821,22.712 208.970207,22.712 C208.074202,22.712 207.230211,22.5680014 206.438207,22.28 C205.646203,21.9919986 204.95821,21.5800027 204.374207,21.044 C203.790204,20.5079973 203.330209,19.8640038 202.994207,19.112 C202.658205,18.3599962 202.490207,17.5200046 202.490207,16.592 C202.490207,15.6639954 202.658205,14.8240038 202.994207,14.072 C203.330209,13.3199962 203.790204,12.6760027 204.374207,12.14 C204.95821,11.6039973 205.646203,11.1920014 206.438207,10.904 C207.230211,10.6159986 208.074202,10.472 208.970207,10.472 C209.65821,10.472 210.382203,10.5879988 211.142207,10.82 C211.902211,11.0520012 212.562204,11.4559971 213.122207,12.032 L210.746207,14.528 Z M222.559448,13.64 L219.391448,13.64 L219.391448,17.528 C219.391448,17.8480016 219.407448,18.1399987 219.439448,18.404 C219.471448,18.6680013 219.543448,18.895999 219.655448,19.088 C219.767449,19.280001 219.939447,19.4279995 220.171448,19.532 C220.403449,19.6360005 220.711446,19.688 221.095448,19.688 C221.287449,19.688 221.539447,19.6680002 221.851448,19.628 C222.16345,19.5879998 222.399447,19.4960007 222.559448,19.352 L222.559448,22.352 C222.159446,22.4960007 221.74345,22.5919998 221.311448,22.64 C220.879446,22.6880002 220.45545,22.712 220.039448,22.712 C219.431445,22.712 218.871451,22.6480006 218.359448,22.52 C217.847446,22.3919994 217.39945,22.1880014 217.015448,21.908 C216.631446,21.6279986 216.331449,21.2640022 216.115448,20.816 C215.899447,20.3679978 215.791448,19.8240032 215.791448,19.184 L215.791448,13.64 L213.487448,13.64 L213.487448,10.76 L215.791448,10.76 L215.791448,7.304 L219.391448,7.304 L219.391448,10.76 L222.559448,10.76 L222.559448,13.64 Z" id="Connect" fill="#F5A623"></path>
            <path d="M41.728,4.008 L48.04,4.008 C48.9200044,4.008 49.7519961,4.0879992 50.536,4.248 C51.3200039,4.4080008 52.0039971,4.68399804 52.588,5.076 C53.1720029,5.46800196 53.6359983,5.99599668 53.98,6.66 C54.3240017,7.32400332 54.496,8.15999496 54.496,9.168 C54.496,10.160005 54.3360016,10.9919966 54.016,11.664 C53.6959984,12.3360034 53.2560028,12.871998 52.696,13.272 C52.1359972,13.672002 51.4720038,13.9559992 50.704,14.124 C49.9359962,14.2920008 49.1040045,14.376 48.208,14.376 L45.472,14.376 L45.472,21 L41.728,21 L41.728,4.008 Z M45.472,11.208 L47.968,11.208 C48.3040017,11.208 48.6279984,11.1760003 48.94,11.112 C49.2520016,11.0479997 49.5319988,10.9400008 49.78,10.788 C50.0280012,10.6359992 50.2279992,10.4280013 50.38,10.164 C50.5320008,9.89999868 50.608,9.568002 50.608,9.168 C50.608,8.73599784 50.508001,8.38800132 50.308,8.124 C50.107999,7.85999868 49.8520016,7.65600072 49.54,7.512 C49.2279984,7.36799928 48.8800019,7.2760002 48.496,7.236 C48.1119981,7.1959998 47.7440018,7.176 47.392,7.176 L45.472,7.176 L45.472,11.208 Z M55.5892414,9.336 L59.1892414,9.336 L59.1892414,11.208 L59.2372414,11.208 C59.6212433,10.4879964 60.0772388,9.9480018 60.6052414,9.588 C61.133244,9.2279982 61.7972374,9.048 62.5972414,9.048 C62.8052424,9.048 63.0132404,9.05599992 63.2212414,9.072 C63.4292424,9.08800008 63.6212405,9.11999976 63.7972414,9.168 L63.7972414,12.456 C63.5412401,12.3759996 63.2892426,12.3160002 63.0412414,12.276 C62.7932402,12.2359998 62.5332428,12.216 62.2612414,12.216 C61.573238,12.216 61.0292434,12.311999 60.6292414,12.504 C60.2292394,12.696001 59.9212425,12.9639983 59.7052414,13.308 C59.4892403,13.6520017 59.3492417,14.0639976 59.2852414,14.544 C59.2212411,15.0240024 59.1892414,15.5519971 59.1892414,16.128 L59.1892414,21 L55.5892414,21 L55.5892414,9.336 Z M71.8744828,19.536 L71.8264828,19.536 C71.4264808,20.1600031 70.8944861,20.6079986 70.2304828,20.88 C69.5664795,21.1520014 68.8664865,21.288 68.1304828,21.288 C67.5864801,21.288 67.0624853,21.2120008 66.5584828,21.06 C66.0544803,20.9079992 65.6104847,20.6800015 65.2264828,20.376 C64.8424809,20.0719985 64.5384839,19.6960022 64.3144828,19.248 C64.0904817,18.7999978 63.9784828,18.280003 63.9784828,17.688 C63.9784828,17.0159966 64.1024816,16.4480023 64.3504828,15.984 C64.598484,15.5199977 64.9344807,15.1360015 65.3584828,14.832 C65.7824849,14.5279985 66.2664801,14.2920008 66.8104828,14.124 C67.3544855,13.9559992 67.9184799,13.8320004 68.5024828,13.752 C69.0864857,13.6719996 69.6704799,13.6240001 70.2544828,13.608 C70.8384857,13.5919999 71.3784803,13.584 71.8744828,13.584 C71.8744828,12.9439968 71.6464851,12.4360019 71.1904828,12.06 C70.7344805,11.6839981 70.1944859,11.496 69.5704828,11.496 C68.9784798,11.496 68.4384852,11.6199988 67.9504828,11.868 C67.4624804,12.1160012 67.0264847,12.4559978 66.6424828,12.888 L64.7224828,10.92 C65.3944862,10.2959969 66.1784783,9.82800156 67.0744828,9.516 C67.9704873,9.20399844 68.898478,9.048 69.8584828,9.048 C70.9144881,9.048 71.7824794,9.17999868 72.4624828,9.444 C73.1424862,9.70800132 73.6864808,10.0959974 74.0944828,10.608 C74.5024848,11.1200026 74.786482,11.7479963 74.9464828,12.492 C75.1064836,13.2360037 75.1864828,14.0959951 75.1864828,15.072 L75.1864828,21 L71.8744828,21 L71.8744828,19.536 Z M70.9864828,15.888 C70.7144814,15.888 70.3744848,15.8999999 69.9664828,15.924 C69.5584808,15.9480001 69.1664847,16.0159994 68.7904828,16.128 C68.4144809,16.2400006 68.0944841,16.4079989 67.8304828,16.632 C67.5664815,16.8560011 67.4344828,17.167998 67.4344828,17.568 C67.4344828,18.0000022 67.618481,18.319999 67.9864828,18.528 C68.3544846,18.736001 68.7384808,18.84 69.1384828,18.84 C69.4904846,18.84 69.8304812,18.7920005 70.1584828,18.696 C70.4864844,18.5999995 70.7784815,18.4640009 71.0344828,18.288 C71.2904841,18.1119991 71.494482,17.8880014 71.6464828,17.616 C71.7984836,17.3439986 71.8744828,17.0240018 71.8744828,16.656 L71.8744828,15.888 L70.9864828,15.888 Z M75.4157242,9.336 L79.3037242,9.336 L82.2557242,17.256 L82.3037242,17.256 L85.0397242,9.336 L88.6637242,9.336 L84.0557242,21 L80.2397242,21 L75.4157242,9.336 Z M100.220966,18.984 C99.6449627,19.7200037 98.91697,20.287998 98.0369656,20.688 C97.1569612,21.088002 96.2449703,21.288 95.3009656,21.288 C94.4049611,21.288 93.5609696,21.1440014 92.7689656,20.856 C91.9769616,20.5679986 91.2889685,20.1560027 90.7049656,19.62 C90.1209627,19.0839973 89.6609673,18.4400038 89.3249656,17.688 C88.9889639,16.9359962 88.8209656,16.0960046 88.8209656,15.168 C88.8209656,14.2399954 88.9889639,13.4000038 89.3249656,12.648 C89.6609673,11.8959962 90.1209627,11.2520027 90.7049656,10.716 C91.2889685,10.1799973 91.9769616,9.76800144 92.7689656,9.48 C93.5609696,9.19199856 94.4049611,9.048 95.3009656,9.048 C96.1329698,9.048 96.8889622,9.19199856 97.5689656,9.48 C98.248969,9.76800144 98.8249632,10.1799973 99.2969656,10.716 C99.768968,11.2520027 100.132964,11.8959962 100.388966,12.648 C100.644967,13.4000038 100.772966,14.2399954 100.772966,15.168 L100.772966,16.296 L92.4209656,16.296 C92.5649663,16.9840034 92.8769632,17.531998 93.3569656,17.94 C93.836968,18.348002 94.4289621,18.552 95.1329656,18.552 C95.7249686,18.552 96.2249636,18.4200013 96.6329656,18.156 C97.0409676,17.8919987 97.3969641,17.5520021 97.7009656,17.136 L100.220966,18.984 Z M97.1729656,13.848 C97.1889657,13.239997 96.9889677,12.7200022 96.5729656,12.288 C96.1569635,11.8559978 95.6209689,11.64 94.9649656,11.64 C94.5649636,11.64 94.2129671,11.7039994 93.9089656,11.832 C93.6049641,11.9600006 93.3449667,12.123999 93.1289656,12.324 C92.9129645,12.524001 92.7449662,12.7559987 92.6249656,13.02 C92.504965,13.2840013 92.4369657,13.5599986 92.4209656,13.848 L97.1729656,13.848 Z M114.394207,20.016 C114.394207,22.224011 113.838213,23.8999943 112.726207,25.044 C111.614201,26.1880057 109.922218,26.76 107.650207,26.76 C106.610202,26.76 105.586212,26.6440012 104.578207,26.412 C103.570202,26.1799988 102.642211,25.7280034 101.794207,25.056 L103.786207,22.08 C104.34621,22.5440023 104.934204,22.9119986 105.550207,23.184 C106.16621,23.4560014 106.842203,23.592 107.578207,23.592 C108.682213,23.592 109.494204,23.3240027 110.014207,22.788 C110.53421,22.2519973 110.794207,21.5680042 110.794207,20.736 L110.794207,19.608 L110.746207,19.608 C110.330205,20.1680028 109.81421,20.5639988 109.198207,20.796 C108.582204,21.0280012 108.00221,21.144 107.458207,21.144 C106.594203,21.144 105.810211,20.9960015 105.106207,20.7 C104.402203,20.4039985 103.79821,19.9880027 103.294207,19.452 C102.790204,18.9159973 102.402208,18.2800037 102.130207,17.544 C101.858206,16.8079963 101.722207,16.0000044 101.722207,15.12 C101.722207,14.3519962 101.846206,13.6000037 102.094207,12.864 C102.342208,12.1279963 102.694205,11.4800028 103.150207,10.92 C103.606209,10.3599972 104.162204,9.90800172 104.818207,9.564 C105.47421,9.21999828 106.218203,9.048 107.050207,9.048 C107.56221,9.048 108.030205,9.10399944 108.454207,9.216 C108.878209,9.32800056 109.258205,9.47199912 109.594207,9.648 C109.930209,9.82400088 110.218206,10.0199989 110.458207,10.236 C110.698208,10.4520011 110.890206,10.663999 111.034207,10.872 L111.082207,10.872 L111.082207,9.336 L114.394207,9.336 L114.394207,20.016 Z M105.322207,15.096 C105.322207,15.4800019 105.394206,15.8439983 105.538207,16.188 C105.682208,16.5320017 105.886206,16.8359987 106.150207,17.1 C106.414208,17.3640013 106.718205,17.5759992 107.062207,17.736 C107.406209,17.8960008 107.786205,17.976 108.202207,17.976 C108.602209,17.976 108.978205,17.8960008 109.330207,17.736 C109.682209,17.5759992 109.990206,17.3640013 110.254207,17.1 C110.518208,16.8359987 110.722206,16.5320017 110.866207,16.188 C111.010208,15.8439983 111.082207,15.4800019 111.082207,15.096 C111.082207,14.7119981 111.010208,14.3480017 110.866207,14.004 C110.722206,13.6599983 110.518208,13.3560013 110.254207,13.092 C109.990206,12.8279987 109.682209,12.6160008 109.330207,12.456 C108.978205,12.2959992 108.602209,12.216 108.202207,12.216 C107.786205,12.216 107.406209,12.2959992 107.062207,12.456 C106.718205,12.6160008 106.414208,12.8279987 106.150207,13.092 C105.886206,13.3560013 105.682208,13.6599983 105.538207,14.004 C105.394206,14.3480017 105.322207,14.7119981 105.322207,15.096 Z M123.791448,19.536 L123.743448,19.536 C123.343446,20.1600031 122.811452,20.6079986 122.147448,20.88 C121.483445,21.1520014 120.783452,21.288 120.047448,21.288 C119.503446,21.288 118.979451,21.2120008 118.475448,21.06 C117.971446,20.9079992 117.52745,20.6800015 117.143448,20.376 C116.759446,20.0719985 116.45545,19.6960022 116.231448,19.248 C116.007447,18.7999978 115.895448,18.280003 115.895448,17.688 C115.895448,17.0159966 116.019447,16.4480023 116.267448,15.984 C116.51545,15.5199977 116.851446,15.1360015 117.275448,14.832 C117.699451,14.5279985 118.183446,14.2920008 118.727448,14.124 C119.271451,13.9559992 119.835445,13.8320004 120.419448,13.752 C121.003451,13.6719996 121.587445,13.6240001 122.171448,13.608 C122.755451,13.5919999 123.295446,13.584 123.791448,13.584 C123.791448,12.9439968 123.563451,12.4360019 123.107448,12.06 C122.651446,11.6839981 122.111452,11.496 121.487448,11.496 C120.895445,11.496 120.355451,11.6199988 119.867448,11.868 C119.379446,12.1160012 118.94345,12.4559978 118.559448,12.888 L116.639448,10.92 C117.311452,10.2959969 118.095444,9.82800156 118.991448,9.516 C119.887453,9.20399844 120.815444,9.048 121.775448,9.048 C122.831454,9.048 123.699445,9.17999868 124.379448,9.444 C125.059452,9.70800132 125.603446,10.0959974 126.011448,10.608 C126.41945,11.1200026 126.703448,11.7479963 126.863448,12.492 C127.023449,13.2360037 127.103448,14.0959951 127.103448,15.072 L127.103448,21 L123.791448,21 L123.791448,19.536 Z M122.903448,15.888 C122.631447,15.888 122.29145,15.8999999 121.883448,15.924 C121.475446,15.9480001 121.08345,16.0159994 120.707448,16.128 C120.331447,16.2400006 120.01145,16.4079989 119.747448,16.632 C119.483447,16.8560011 119.351448,17.167998 119.351448,17.568 C119.351448,18.0000022 119.535447,18.319999 119.903448,18.528 C120.27145,18.736001 120.655446,18.84 121.055448,18.84 C121.40745,18.84 121.747447,18.7920005 122.075448,18.696 C122.40345,18.5999995 122.695447,18.4640009 122.951448,18.288 C123.20745,18.1119991 123.411448,17.8880014 123.563448,17.616 C123.715449,17.3439986 123.791448,17.0240018 123.791448,16.656 L123.791448,15.888 L122.903448,15.888 Z" id="vcfirm" fill="#0F214A"></path>
        </g>
    </g>
</svg>