<?xml version="1.0" encoding="UTF-8"?>
<svg width="228px" height="23px" viewBox="0 0 228 23" version="1.1" xmlns="http://www.w3.org/2000/svg" xmlns:xlink="http://www.w3.org/1999/xlink">
    <!-- Generator: Sketch 48.2 (47327) - http://www.bohemiancoding.com/sketch -->
    <title>Group 22</title>
    <desc>Created with Sketch.</desc>
    <defs></defs>
    <g id="Page-1" stroke="none" stroke-width="1" fill="none" fill-rule="evenodd">
        <g id="Group-22">
            <g id="Group-25">
                <polygon id="Path-14" fill="#8E8B87" points="3.63512371 4.95745277 10.2149524 4.95745277 16.7460509 15.1562633 28 4 18.988473 22 14.7064181 22"></polygon>
                <path d="M4.8814319,22 L0,22 L0,10.022589 L12.8644393,10.022589 C13.3949788,9.31228667 13.6602485,8.41443452 13.6602485,7.32903253 C13.6602485,6.24363053 13.3949788,5.47979649 12.8644393,5.03753039 L3.55763681,5.03753039 L6.71803361,0 L14.0903753,0 C17.3634584,1.20985899 19,3.40384166 19,6.58194803 C19,9.76005439 17.3634584,12.1614636 14.0903753,13.7861758 L5.01990085,13.7861758 L4.8814319,22 Z" id="Path-12" fill="#5C6063"></path>
                <polygon id="Path-13" fill="#5C6063" points="23.6515302 0 32 0 16.8179981 15.00625"></polygon>
            </g>
            <path d="M41.728,0.008 L48.04,0.008 C48.9200044,0.008 49.7519961,0.0879992 50.536,0.248 C51.3200039,0.4080008 52.0039971,0.68399804 52.588,1.076 C53.1720029,1.46800196 53.6359983,1.99599668 53.98,2.66 C54.3240017,3.32400332 54.496,4.15999496 54.496,5.168 C54.496,6.16000496 54.3360016,6.99199664 54.016,7.664 C53.6959984,8.33600336 53.2560028,8.871998 52.696,9.272 C52.1359972,9.672002 51.4720038,9.95599916 50.704,10.124 C49.9359962,10.2920008 49.1040045,10.376 48.208,10.376 L45.472,10.376 L45.472,17 L41.728,17 L41.728,0.008 Z M45.472,7.208 L47.968,7.208 C48.3040017,7.208 48.6279984,7.17600032 48.94,7.112 C49.2520016,7.04799968 49.5319988,6.94000076 49.78,6.788 C50.0280012,6.63599924 50.2279992,6.42800132 50.38,6.164 C50.5320008,5.89999868 50.608,5.568002 50.608,5.168 C50.608,4.73599784 50.508001,4.38800132 50.308,4.124 C50.107999,3.85999868 49.8520016,3.65600072 49.54,3.512 C49.2279984,3.36799928 48.8800019,3.2760002 48.496,3.236 C48.1119981,3.1959998 47.7440018,3.176 47.392,3.176 L45.472,3.176 L45.472,7.208 Z M55.5892414,5.336 L59.1892414,5.336 L59.1892414,7.208 L59.2372414,7.208 C59.6212433,6.4879964 60.0772387,5.9480018 60.6052414,5.588 C61.133244,5.2279982 61.7972374,5.048 62.5972414,5.048 C62.8052424,5.048 63.0132403,5.05599992 63.2212414,5.072 C63.4292424,5.08800008 63.6212405,5.11999976 63.7972414,5.168 L63.7972414,8.456 C63.5412401,8.3759996 63.2892426,8.3160002 63.0412414,8.276 C62.7932401,8.2359998 62.5332427,8.216 62.2612414,8.216 C61.5732379,8.216 61.0292434,8.31199904 60.6292414,8.504 C60.2292394,8.69600096 59.9212424,8.96399828 59.7052414,9.308 C59.4892403,9.65200172 59.3492417,10.0639976 59.2852414,10.544 C59.221241,11.0240024 59.1892414,11.5519971 59.1892414,12.128 L59.1892414,17 L55.5892414,17 L55.5892414,5.336 Z M71.8744827,15.536 L71.8264827,15.536 C71.4264807,16.1600031 70.8944861,16.6079986 70.2304827,16.88 C69.5664794,17.1520014 68.8664864,17.288 68.1304827,17.288 C67.58648,17.288 67.0624853,17.2120008 66.5584827,17.06 C66.0544802,16.9079992 65.6104847,16.6800015 65.2264827,16.376 C64.8424808,16.0719985 64.5384839,15.6960022 64.3144827,15.248 C64.0904816,14.7999978 63.9784827,14.280003 63.9784827,13.688 C63.9784827,13.0159966 64.1024815,12.4480023 64.3504827,11.984 C64.598484,11.5199977 64.9344806,11.1360015 65.3584827,10.832 C65.7824849,10.5279985 66.26648,10.2920008 66.8104827,10.124 C67.3544855,9.95599916 67.9184798,9.8320004 68.5024827,9.752 C69.0864857,9.6719996 69.6704798,9.62400008 70.2544827,9.608 C70.8384857,9.59199992 71.3784803,9.584 71.8744827,9.584 C71.8744827,8.9439968 71.646485,8.43600188 71.1904827,8.06 C70.7344805,7.68399812 70.1944859,7.496 69.5704827,7.496 C68.9784798,7.496 68.4384852,7.61999876 67.9504827,7.868 C67.4624803,8.11600124 67.0264847,8.45599784 66.6424827,8.888 L64.7224827,6.92 C65.3944861,6.29599688 66.1784783,5.82800156 67.0744827,5.516 C67.9704872,5.20399844 68.8984779,5.048 69.8584827,5.048 C70.914488,5.048 71.7824793,5.17999868 72.4624827,5.444 C73.1424861,5.70800132 73.6864807,6.09599744 74.0944827,6.608 C74.5024848,7.12000256 74.7864819,7.74799628 74.9464827,8.492 C75.1064835,9.23600372 75.1864827,10.0959951 75.1864827,11.072 L75.1864827,17 L71.8744827,17 L71.8744827,15.536 Z M70.9864827,11.888 C70.7144814,11.888 70.3744848,11.8999999 69.9664827,11.924 C69.5584807,11.9480001 69.1664846,12.0159994 68.7904827,12.128 C68.4144809,12.2400006 68.0944841,12.4079989 67.8304827,12.632 C67.5664814,12.8560011 67.4344827,13.167998 67.4344827,13.568 C67.4344827,14.0000022 67.6184809,14.319999 67.9864827,14.528 C68.3544846,14.736001 68.7384807,14.84 69.1384827,14.84 C69.4904845,14.84 69.8304811,14.7920005 70.1584827,14.696 C70.4864844,14.5999995 70.7784815,14.4640009 71.0344827,14.288 C71.290484,14.1119991 71.494482,13.8880014 71.6464827,13.616 C71.7984835,13.3439986 71.8744827,13.0240018 71.8744827,12.656 L71.8744827,11.888 L70.9864827,11.888 Z M75.4157241,5.336 L79.3037241,5.336 L82.2557241,13.256 L82.3037241,13.256 L85.0397241,5.336 L88.6637241,5.336 L84.0557241,17 L80.2397241,17 L75.4157241,5.336 Z M100.220965,14.984 C99.6449626,15.7200037 98.9169699,16.287998 98.0369655,16.688 C97.1569611,17.088002 96.2449702,17.288 95.3009655,17.288 C94.404961,17.288 93.5609694,17.1440014 92.7689655,16.856 C91.9769615,16.5679986 91.2889684,16.1560027 90.7049655,15.62 C90.1209625,15.0839973 89.6609671,14.4400038 89.3249655,13.688 C88.9889638,12.9359962 88.8209655,12.0960046 88.8209655,11.168 C88.8209655,10.2399954 88.9889638,9.40000376 89.3249655,8.648 C89.6609671,7.89599624 90.1209625,7.25200268 90.7049655,6.716 C91.2889684,6.17999732 91.9769615,5.76800144 92.7689655,5.48 C93.5609694,5.19199856 94.404961,5.048 95.3009655,5.048 C96.1329696,5.048 96.8889621,5.19199856 97.5689655,5.48 C98.2489689,5.76800144 98.8249631,6.17999732 99.2969655,6.716 C99.7689678,7.25200268 100.132964,7.89599624 100.388965,8.648 C100.644967,9.40000376 100.772965,10.2399954 100.772965,11.168 L100.772965,12.296 L92.4209655,12.296 C92.5649662,12.9840034 92.8769631,13.531998 93.3569655,13.94 C93.8369679,14.348002 94.4289619,14.552 95.1329655,14.552 C95.7249684,14.552 96.2249634,14.4200013 96.6329655,14.156 C97.0409675,13.8919987 97.3969639,13.5520021 97.7009655,13.136 L100.220965,14.984 Z M97.1729655,9.848 C97.1889655,9.23999696 96.9889675,8.72000216 96.5729655,8.288 C96.1569634,7.85599784 95.6209687,7.64 94.9649655,7.64 C94.5649635,7.64 94.212967,7.70399936 93.9089655,7.832 C93.6049639,7.96000064 93.3449665,8.123999 93.1289655,8.324 C92.9129644,8.524001 92.7449661,8.75599868 92.6249655,9.02 C92.5049649,9.28400132 92.4369655,9.55999856 92.4209655,9.848 L97.1729655,9.848 Z M114.394207,16.016 C114.394207,18.224011 113.838212,19.8999943 112.726207,21.044 C111.614201,22.1880057 109.922218,22.76 107.650207,22.76 C106.610202,22.76 105.586212,22.6440012 104.578207,22.412 C103.570202,22.1799988 102.642211,21.7280034 101.794207,21.056 L103.786207,18.08 C104.34621,18.5440023 104.934204,18.9119986 105.550207,19.184 C106.16621,19.4560014 106.842203,19.592 107.578207,19.592 C108.682212,19.592 109.494204,19.3240027 110.014207,18.788 C110.534209,18.2519973 110.794207,17.5680042 110.794207,16.736 L110.794207,15.608 L110.746207,15.608 C110.330205,16.1680028 109.81421,16.5639988 109.198207,16.796 C108.582204,17.0280012 108.00221,17.144 107.458207,17.144 C106.594203,17.144 105.81021,16.9960015 105.106207,16.7 C104.402203,16.4039985 103.798209,15.9880027 103.294207,15.452 C102.790204,14.9159973 102.402208,14.2800037 102.130207,13.544 C101.858205,12.8079963 101.722207,12.0000044 101.722207,11.12 C101.722207,10.3519962 101.846206,9.60000368 102.094207,8.864 C102.342208,8.12799632 102.694205,7.4800028 103.150207,6.92 C103.606209,6.3599972 104.162204,5.90800172 104.818207,5.564 C105.47421,5.21999828 106.218203,5.048 107.050207,5.048 C107.562209,5.048 108.030205,5.10399944 108.454207,5.216 C108.878209,5.32800056 109.258205,5.47199912 109.594207,5.648 C109.930209,5.82400088 110.218206,6.01999892 110.458207,6.236 C110.698208,6.45200108 110.890206,6.66399896 111.034207,6.872 L111.082207,6.872 L111.082207,5.336 L114.394207,5.336 L114.394207,16.016 Z M105.322207,11.096 C105.322207,11.4800019 105.394206,11.8439983 105.538207,12.188 C105.682208,12.5320017 105.886206,12.8359987 106.150207,13.1 C106.414208,13.3640013 106.718205,13.5759992 107.062207,13.736 C107.406209,13.8960008 107.786205,13.976 108.202207,13.976 C108.602209,13.976 108.978205,13.8960008 109.330207,13.736 C109.682209,13.5759992 109.990206,13.3640013 110.254207,13.1 C110.518208,12.8359987 110.722206,12.5320017 110.866207,12.188 C111.010208,11.8439983 111.082207,11.4800019 111.082207,11.096 C111.082207,10.7119981 111.010208,10.3480017 110.866207,10.004 C110.722206,9.65999828 110.518208,9.35600132 110.254207,9.092 C109.990206,8.82799868 109.682209,8.6160008 109.330207,8.456 C108.978205,8.2959992 108.602209,8.216 108.202207,8.216 C107.786205,8.216 107.406209,8.2959992 107.062207,8.456 C106.718205,8.6160008 106.414208,8.82799868 106.150207,9.092 C105.886206,9.35600132 105.682208,9.65999828 105.538207,10.004 C105.394206,10.3480017 105.322207,10.7119981 105.322207,11.096 Z M123.791448,15.536 L123.743448,15.536 C123.343446,16.1600031 122.811452,16.6079986 122.147448,16.88 C121.483445,17.1520014 120.783452,17.288 120.047448,17.288 C119.503445,17.288 118.979451,17.2120008 118.475448,17.06 C117.971446,16.9079992 117.52745,16.6800015 117.143448,16.376 C116.759446,16.0719985 116.455449,15.6960022 116.231448,15.248 C116.007447,14.7999978 115.895448,14.280003 115.895448,13.688 C115.895448,13.0159966 116.019447,12.4480023 116.267448,11.984 C116.515449,11.5199977 116.851446,11.1360015 117.275448,10.832 C117.69945,10.5279985 118.183445,10.2920008 118.727448,10.124 C119.271451,9.95599916 119.835445,9.8320004 120.419448,9.752 C121.003451,9.6719996 121.587445,9.62400008 122.171448,9.608 C122.755451,9.59199992 123.295446,9.584 123.791448,9.584 C123.791448,8.9439968 123.56345,8.43600188 123.107448,8.06 C122.651446,7.68399812 122.111451,7.496 121.487448,7.496 C120.895445,7.496 120.355451,7.61999876 119.867448,7.868 C119.379446,8.11600124 118.94345,8.45599784 118.559448,8.888 L116.639448,6.92 C117.311452,6.29599688 118.095444,5.82800156 118.991448,5.516 C119.887453,5.20399844 120.815443,5.048 121.775448,5.048 C122.831453,5.048 123.699445,5.17999868 124.379448,5.444 C125.059452,5.70800132 125.603446,6.09599744 126.011448,6.608 C126.41945,7.12000256 126.703447,7.74799628 126.863448,8.492 C127.023449,9.23600372 127.103448,10.0959951 127.103448,11.072 L127.103448,17 L123.791448,17 L123.791448,15.536 Z M122.903448,11.888 C122.631447,11.888 122.29145,11.8999999 121.883448,11.924 C121.475446,11.9480001 121.08345,12.0159994 120.707448,12.128 C120.331446,12.2400006 120.01145,12.4079989 119.747448,12.632 C119.483447,12.8560011 119.351448,13.167998 119.351448,13.568 C119.351448,14.0000022 119.535446,14.319999 119.903448,14.528 C120.27145,14.736001 120.655446,14.84 121.055448,14.84 C121.40745,14.84 121.747447,14.7920005 122.075448,14.696 C122.40345,14.5999995 122.695447,14.4640009 122.951448,14.288 C123.207449,14.1119991 123.411447,13.8880014 123.563448,13.616 C123.715449,13.3439986 123.791448,13.0240018 123.791448,12.656 L123.791448,11.888 L122.903448,11.888 Z M133.201931,0.008 L137.473931,0.008 L141.673931,11.144 L141.721931,11.144 L145.993931,0.008 L150.001931,0.008 L142.993931,17 L139.993931,17 L133.201931,0.008 Z M160.239172,14.984 C159.663169,15.7200037 158.935177,16.287998 158.055172,16.688 C157.175168,17.088002 156.263177,17.288 155.319172,17.288 C154.423168,17.288 153.579176,17.1440014 152.787172,16.856 C151.995168,16.5679986 151.307175,16.1560027 150.723172,15.62 C150.139169,15.0839973 149.679174,14.4400038 149.343172,13.688 C149.007171,12.9359962 148.839172,12.0960046 148.839172,11.168 C148.839172,10.2399954 149.007171,9.40000376 149.343172,8.648 C149.679174,7.89599624 150.139169,7.25200268 150.723172,6.716 C151.307175,6.17999732 151.995168,5.76800144 152.787172,5.48 C153.579176,5.19199856 154.423168,5.048 155.319172,5.048 C156.151176,5.048 156.907169,5.19199856 157.587172,5.48 C158.267176,5.76800144 158.84317,6.17999732 159.315172,6.716 C159.787175,7.25200268 160.151171,7.89599624 160.407172,8.648 C160.663174,9.40000376 160.791172,10.2399954 160.791172,11.168 L160.791172,12.296 L152.439172,12.296 C152.583173,12.9840034 152.89517,13.531998 153.375172,13.94 C153.855175,14.348002 154.447169,14.552 155.151172,14.552 C155.743175,14.552 156.24317,14.4200013 156.651172,14.156 C157.059174,13.8919987 157.415171,13.5520021 157.719172,13.136 L160.239172,14.984 Z M157.191172,9.848 C157.207172,9.23999696 157.007174,8.72000216 156.591172,8.288 C156.17517,7.85599784 155.639176,7.64 154.983172,7.64 C154.58317,7.64 154.231174,7.70399936 153.927172,7.832 C153.623171,7.96000064 153.363173,8.123999 153.147172,8.324 C152.931171,8.524001 152.763173,8.75599868 152.643172,9.02 C152.523172,9.28400132 152.455172,9.55999856 152.439172,9.848 L157.191172,9.848 Z M162.172414,5.336 L165.628414,5.336 L165.628414,6.92 L165.676414,6.92 C165.788414,6.69599888 165.948413,6.47200112 166.156414,6.248 C166.364415,6.02399888 166.612412,5.82400088 166.900414,5.648 C167.188415,5.47199912 167.516412,5.32800056 167.884414,5.216 C168.252415,5.10399944 168.652411,5.048 169.084414,5.048 C169.996418,5.048 170.732411,5.1879986 171.292414,5.468 C171.852416,5.7480014 172.288412,6.13599752 172.600414,6.632 C172.912415,7.12800248 173.124413,7.71199664 173.236414,8.384 C173.348414,9.05600336 173.404414,9.78399608 173.404414,10.568 L173.404414,17 L169.804414,17 L169.804414,11.288 C169.804414,10.9519983 169.792414,10.6040018 169.768414,10.244 C169.744414,9.8839982 169.672414,9.55200152 169.552414,9.248 C169.432413,8.94399848 169.248415,8.69600096 169.000414,8.504 C168.752412,8.31199904 168.396416,8.216 167.932414,8.216 C167.468411,8.216 167.092415,8.29999916 166.804414,8.468 C166.516412,8.63600084 166.296414,8.8599986 166.144414,9.14 C165.992413,9.4200014 165.892414,9.73599824 165.844414,10.088 C165.796413,10.4400018 165.772414,10.8079981 165.772414,11.192 L165.772414,17 L162.172414,17 L162.172414,5.336 Z M183.089655,8.216 L179.921655,8.216 L179.921655,12.104 C179.921655,12.4240016 179.937655,12.7159987 179.969655,12.98 C180.001655,13.2440013 180.073654,13.471999 180.185655,13.664 C180.297656,13.856001 180.469654,14.0039995 180.701655,14.108 C180.933656,14.2120005 181.241653,14.264 181.625655,14.264 C181.817656,14.264 182.069653,14.2440002 182.381655,14.204 C182.693657,14.1639998 182.929654,14.0720007 183.089655,13.928 L183.089655,16.928 C182.689653,17.0720007 182.273657,17.1679998 181.841655,17.216 C181.409653,17.2640002 180.985657,17.288 180.569655,17.288 C179.961652,17.288 179.401658,17.2240006 178.889655,17.096 C178.377652,16.9679994 177.929657,16.7640014 177.545655,16.484 C177.161653,16.2039986 176.861656,15.8400022 176.645655,15.392 C176.429654,14.9439978 176.321655,14.4000032 176.321655,13.76 L176.321655,8.216 L174.017655,8.216 L174.017655,5.336 L176.321655,5.336 L176.321655,1.88 L179.921655,1.88 L179.921655,5.336 L183.089655,5.336 L183.089655,8.216 Z M195.342896,17 L191.886896,17 L191.886896,15.416 L191.838896,15.416 C191.710896,15.6400011 191.546897,15.8639989 191.346896,16.088 C191.146895,16.3120011 190.902898,16.5119991 190.614896,16.688 C190.326895,16.8640009 189.998898,17.0079994 189.630896,17.12 C189.262895,17.2320006 188.862899,17.288 188.430896,17.288 C187.518892,17.288 186.778899,17.1480014 186.210896,16.868 C185.642894,16.5879986 185.202898,16.2000025 184.890896,15.704 C184.578895,15.2079975 184.370897,14.6240034 184.266896,13.952 C184.162896,13.2799966 184.110896,12.5520039 184.110896,11.768 L184.110896,5.336 L187.710896,5.336 L187.710896,11.048 C187.710896,11.3840017 187.722896,11.7319982 187.746896,12.092 C187.770897,12.4520018 187.842896,12.7839985 187.962896,13.088 C188.082897,13.3920015 188.266895,13.639999 188.514896,13.832 C188.762898,14.024001 189.118894,14.12 189.582896,14.12 C190.046899,14.12 190.422895,14.0360008 190.710896,13.868 C190.998898,13.6999992 191.218896,13.4760014 191.370896,13.196 C191.522897,12.9159986 191.622896,12.6000018 191.670896,12.248 C191.718897,11.8959982 191.742896,11.5280019 191.742896,11.144 L191.742896,5.336 L195.342896,5.336 L195.342896,17 Z M197.084138,5.336 L200.684138,5.336 L200.684138,7.208 L200.732138,7.208 C201.11614,6.4879964 201.572135,5.9480018 202.100138,5.588 C202.62814,5.2279982 203.292134,5.048 204.092138,5.048 C204.300139,5.048 204.508137,5.05599992 204.716138,5.072 C204.924139,5.08800008 205.116137,5.11999976 205.292138,5.168 L205.292138,8.456 C205.036136,8.3759996 204.784139,8.3160002 204.536138,8.276 C204.288137,8.2359998 204.028139,8.216 203.756138,8.216 C203.068134,8.216 202.52414,8.31199904 202.124138,8.504 C201.724136,8.69600096 201.416139,8.96399828 201.200138,9.308 C200.984137,9.65200172 200.844138,10.0639976 200.780138,10.544 C200.716137,11.0240024 200.684138,11.5519971 200.684138,12.128 L200.684138,17 L197.084138,17 L197.084138,5.336 Z M216.657379,14.984 C216.081376,15.7200037 215.353384,16.287998 214.473379,16.688 C213.593375,17.088002 212.681384,17.288 211.737379,17.288 C210.841375,17.288 209.997383,17.1440014 209.205379,16.856 C208.413375,16.5679986 207.725382,16.1560027 207.141379,15.62 C206.557376,15.0839973 206.097381,14.4400038 205.761379,13.688 C205.425377,12.9359962 205.257379,12.0960046 205.257379,11.168 C205.257379,10.2399954 205.425377,9.40000376 205.761379,8.648 C206.097381,7.89599624 206.557376,7.25200268 207.141379,6.716 C207.725382,6.17999732 208.413375,5.76800144 209.205379,5.48 C209.997383,5.19199856 210.841375,5.048 211.737379,5.048 C212.569383,5.048 213.325376,5.19199856 214.005379,5.48 C214.685383,5.76800144 215.261377,6.17999732 215.733379,6.716 C216.205381,7.25200268 216.569378,7.89599624 216.825379,8.648 C217.08138,9.40000376 217.209379,10.2399954 217.209379,11.168 L217.209379,12.296 L208.857379,12.296 C209.00138,12.9840034 209.313377,13.531998 209.793379,13.94 C210.273382,14.348002 210.865376,14.552 211.569379,14.552 C212.161382,14.552 212.661377,14.4200013 213.069379,14.156 C213.477381,13.8919987 213.833378,13.5520021 214.137379,13.136 L216.657379,14.984 Z M213.609379,9.848 C213.625379,9.23999696 213.425381,8.72000216 213.009379,8.288 C212.593377,7.85599784 212.057382,7.64 211.401379,7.64 C211.001377,7.64 210.649381,7.70399936 210.345379,7.832 C210.041378,7.96000064 209.78138,8.123999 209.565379,8.324 C209.349378,8.524001 209.18138,8.75599868 209.061379,9.02 C208.941379,9.28400132 208.873379,9.55999856 208.857379,9.848 L213.609379,9.848 Z M225.19062,8.768 C224.662618,8.11199672 223.966625,7.784 223.10262,7.784 C222.798619,7.784 222.502622,7.85599928 222.21462,8 C221.926619,8.14400072 221.78262,8.39199824 221.78262,8.744 C221.78262,9.03200144 221.930619,9.24399932 222.22662,9.38 C222.522622,9.51600068 222.898618,9.63599948 223.35462,9.74 C223.810623,9.84400052 224.298618,9.9559994 224.81862,10.076 C225.338623,10.1960006 225.826618,10.3839987 226.28262,10.64 C226.738623,10.8960013 227.114619,11.2439978 227.41062,11.684 C227.706622,12.1240022 227.85462,12.7119963 227.85462,13.448 C227.85462,14.2000038 227.690622,14.8199976 227.36262,15.308 C227.034619,15.7960024 226.614623,16.1879985 226.10262,16.484 C225.590618,16.7800015 225.014624,16.9879994 224.37462,17.108 C223.734617,17.2280006 223.102624,17.288 222.47862,17.288 C221.662616,17.288 220.838625,17.1720012 220.00662,16.94 C219.174616,16.7079988 218.470623,16.296003 217.89462,15.704 L220.07862,13.28 C220.414622,13.6960021 220.786618,14.0119989 221.19462,14.228 C221.602623,14.4440011 222.078618,14.552 222.62262,14.552 C223.038623,14.552 223.414619,14.4920006 223.75062,14.372 C224.086622,14.2519994 224.25462,14.0320016 224.25462,13.712 C224.25462,13.4079985 224.106622,13.1800008 223.81062,13.028 C223.514619,12.8759992 223.138623,12.7480005 222.68262,12.644 C222.226618,12.5399995 221.738623,12.4280006 221.21862,12.308 C220.698618,12.1879994 220.210623,12.0080012 219.75462,11.768 C219.298618,11.5279988 218.922622,11.1880022 218.62662,10.748 C218.330619,10.3079978 218.18262,9.72000368 218.18262,8.984 C218.18262,8.29599656 218.322619,7.70400248 218.60262,7.208 C218.882622,6.71199752 219.250618,6.3040016 219.70662,5.984 C220.162623,5.6639984 220.686618,5.42800076 221.27862,5.276 C221.870623,5.12399924 222.470617,5.048 223.07862,5.048 C223.846624,5.048 224.622617,5.15999888 225.40662,5.384 C226.190624,5.60800112 226.854618,6.00799712 227.39862,6.584 L225.19062,8.768 Z" id="vcfirm-Ventures" fill="#545962"></path>
        </g>
    </g>
</svg>